<svg width="834" height="842" viewBox="0 0 834 842" fill="none" xmlns="http://www.w3.org/2000/svg">
<path d="M441.52 132.787H338.085V0H414.891L441.52 25.2995V132.787Z" fill="white"/>
<path d="M414.891 0L441.521 25.2995H414.891V0Z" fill="#DBDBDB"/>
<path d="M348.185 25.7021L405.699 25.7021V22.2953L348.185 22.2953V25.7021Z" fill="#DBDBDB"/>
<path d="M348.185 34.3103L405.699 34.3103V30.9035L348.185 30.9035V34.3103Z" fill="#DBDBDB"/>
<path d="M348.185 42.9182L405.699 42.9182V39.5113L348.185 39.5113V42.9182Z" fill="#DBDBDB"/>
<path d="M348.185 51.5259L432.449 51.5259V48.119L348.185 48.119V51.5259Z" fill="#DBDBDB"/>
<path d="M348.185 60.1338L432.449 60.1338V56.7269L348.185 56.7269V60.1338Z" fill="#DBDBDB"/>
<path d="M348.185 68.7217L432.449 68.7217V65.3148L348.185 65.3148V68.7217Z" fill="#DBDBDB"/>
<path d="M348.185 77.3298L432.449 77.3298V73.923L348.185 73.923V77.3298Z" fill="#DBDBDB"/>
<path d="M348.185 85.9373L432.449 85.9373V82.5304L348.185 82.5304V85.9373Z" fill="#DBDBDB"/>
<path d="M348.185 94.5454L432.449 94.5454V91.1386L348.185 91.1386V94.5454Z" fill="#DBDBDB"/>
<path d="M348.185 103.153L432.449 103.153V99.746L348.185 99.746V103.153Z" fill="#DBDBDB"/>
<path d="M348.185 111.761L432.449 111.761V108.354L348.185 108.354V111.761Z" fill="#DBDBDB"/>
<path d="M348.185 120.369L432.449 120.369V116.962L348.185 116.962V120.369Z" fill="#DBDBDB"/>
<path d="M576.142 186.833L576.404 290.148C576.409 291.521 576.144 292.883 575.623 294.154C575.102 295.426 574.336 296.582 573.368 297.557C572.4 298.533 571.25 299.308 569.983 299.839C568.715 300.369 567.356 300.645 565.982 300.65L402.13 301.074C400.756 301.076 399.395 300.808 398.125 300.285C396.854 299.762 395.699 298.993 394.726 298.024C393.753 297.054 392.98 295.902 392.452 294.634C391.923 293.365 391.65 292.005 391.647 290.631L391.385 187.317C391.38 186.039 391.627 184.773 392.111 183.591C392.596 182.408 393.309 181.333 394.21 180.427C395.111 179.521 396.181 178.801 397.36 178.309C398.539 177.817 399.804 177.563 401.082 177.56L566.385 177.137C567.663 177.131 568.929 177.378 570.111 177.863C571.293 178.347 572.368 179.06 573.275 179.961C574.181 180.862 574.901 181.932 575.393 183.111C575.885 184.291 576.139 185.555 576.142 186.833V186.833Z" fill="#AFBFC2"/>
<path d="M549.734 275.673C549.738 277.575 549.178 279.435 548.125 281.019C547.071 282.602 545.572 283.838 543.817 284.57C542.061 285.301 540.128 285.496 538.262 285.128C536.396 284.761 534.681 283.849 533.333 282.507C531.986 281.165 531.066 279.454 530.691 277.589C530.316 275.725 530.503 273.791 531.227 272.032C531.951 270.274 533.18 268.769 534.759 267.709C536.338 266.65 538.196 266.082 540.098 266.078C541.361 266.075 542.612 266.321 543.779 266.802C544.947 267.283 546.009 267.989 546.903 268.88C547.798 269.771 548.509 270.829 548.994 271.995C549.48 273.161 549.731 274.411 549.734 275.673V275.673Z" fill="#DBDBDB"/>
<path d="M561.587 275.633C561.591 277.534 561.031 279.394 559.979 280.977C558.927 282.56 557.429 283.795 555.674 284.527C553.92 285.259 551.988 285.455 550.123 285.09C548.257 284.724 546.542 283.814 545.193 282.474C543.845 281.134 542.924 279.424 542.547 277.561C542.169 275.698 542.353 273.765 543.074 272.006C543.795 270.247 545.021 268.741 546.598 267.679C548.174 266.617 550.03 266.045 551.931 266.037C553.195 266.032 554.448 266.276 555.618 266.756C556.788 267.235 557.852 267.941 558.749 268.832C559.646 269.724 560.359 270.783 560.845 271.95C561.332 273.117 561.584 274.369 561.587 275.633Z" fill="#5A74CA"/>
<path d="M433.126 195.206L415.387 195.252C410.711 195.264 406.93 199.065 406.942 203.741L406.961 210.777C406.973 215.453 410.773 219.233 415.449 219.221L433.189 219.175C437.865 219.162 441.646 215.362 441.634 210.686L441.615 203.65C441.603 198.974 437.803 195.194 433.126 195.206Z" fill="#5A74CA"/>
<path d="M554.834 208.04H539.15C538.285 208.043 537.429 207.875 536.629 207.546C535.829 207.217 535.102 206.733 534.49 206.123C533.878 205.512 533.392 204.787 533.06 203.988C532.729 203.189 532.558 202.333 532.558 201.468V201.468C532.555 200.606 532.723 199.752 533.051 198.955C533.379 198.158 533.861 197.433 534.47 196.823C535.079 196.212 535.802 195.728 536.598 195.397C537.394 195.067 538.248 194.897 539.11 194.897H554.793C555.657 194.891 556.513 195.057 557.313 195.384C558.113 195.711 558.84 196.192 559.452 196.801C560.065 197.41 560.551 198.134 560.883 198.932C561.215 199.729 561.385 200.584 561.385 201.448V201.448C561.388 202.311 561.221 203.166 560.893 203.965C560.565 204.763 560.083 205.489 559.475 206.101C558.866 206.713 558.143 207.2 557.347 207.532C556.551 207.865 555.697 208.038 554.834 208.04V208.04Z" fill="white"/>
<path d="M494.84 267.153L407.108 267.383L407.12 271.697L494.851 271.467L494.84 267.153Z" fill="#DBDBDB"/>
<path d="M469.264 276.815L407.155 276.978L407.166 281.292L469.276 281.129L469.264 276.815Z" fill="#DBDBDB"/>
<path d="M526.523 194.962L482.758 195.076L482.769 199.39L526.534 199.276L526.523 194.962Z" fill="#DBDBDB"/>
<path d="M411 244.206H410.395V250.757H411V244.206Z" fill="#C7C7C7"/>
<path d="M413.963 247.189H407.412V247.793H413.963V247.189Z" fill="#C7C7C7"/>
<path d="M412.803 244.943L408.156 249.59L408.583 250.017L413.23 245.37L412.803 244.943Z" fill="#C7C7C7"/>
<path d="M408.603 244.963L408.176 245.39L412.823 250.037L413.25 249.61L408.603 244.963Z" fill="#C7C7C7"/>
<path d="M418.883 244.206H418.278V250.757H418.883V244.206Z" fill="#C7C7C7"/>
<path d="M421.866 247.189H415.314V247.793H421.866V247.189Z" fill="#C7C7C7"/>
<path d="M420.694 244.953L416.062 249.586L416.489 250.014L421.122 245.381L420.694 244.953Z" fill="#C7C7C7"/>
<path d="M416.474 244.938L416.046 245.366L420.678 249.999L421.106 249.572L416.474 244.938Z" fill="#C7C7C7"/>
<path d="M426.784 244.206H426.18V250.757H426.784V244.206Z" fill="#C7C7C7"/>
<path d="M429.748 247.189H423.197V247.793H429.748V247.189Z" fill="#C7C7C7"/>
<path d="M424.365 250.011L423.942 249.588L428.578 244.951L429.022 245.375L424.365 250.011Z" fill="#C7C7C7"/>
<path d="M428.578 250.011L423.942 245.375L424.365 244.951L429.022 249.588L428.578 250.011Z" fill="#C7C7C7"/>
<path d="M434.666 244.206H434.062V250.757H434.666V244.206Z" fill="#C7C7C7"/>
<path d="M437.65 247.189H431.099V247.793H437.65V247.189Z" fill="#C7C7C7"/>
<path d="M432.267 250.011L431.844 249.588L436.48 244.951L436.904 245.375L432.267 250.011Z" fill="#C7C7C7"/>
<path d="M436.48 250.011L431.844 245.375L432.267 244.951L436.904 249.588L436.48 250.011Z" fill="#C7C7C7"/>
<path d="M451.903 244.206H451.298V250.757H451.903V244.206Z" fill="#C7C7C7"/>
<path d="M454.867 247.189H448.315V247.793H454.867V247.189Z" fill="#C7C7C7"/>
<path d="M449.504 250.011L449.06 249.588L453.697 244.951L454.14 245.375L449.504 250.011Z" fill="#C7C7C7"/>
<path d="M453.697 250.011L449.06 245.375L449.504 244.951L454.14 249.588L453.697 250.011Z" fill="#C7C7C7"/>
<path d="M459.784 244.206H459.18V250.757H459.784V244.206Z" fill="#C7C7C7"/>
<path d="M462.768 247.189H456.217V247.793H462.768V247.189Z" fill="#C7C7C7"/>
<path d="M457.385 250.011L456.962 249.588L461.598 244.951L462.022 245.375L457.385 250.011Z" fill="#C7C7C7"/>
<path d="M461.598 250.011L456.962 245.375L457.385 244.951L462.022 249.588L461.598 250.011Z" fill="#C7C7C7"/>
<path d="M467.687 244.206H467.082V250.757H467.687V244.206Z" fill="#C7C7C7"/>
<path d="M470.65 247.189H464.099V247.793H470.65V247.189Z" fill="#C7C7C7"/>
<path d="M465.289 250.011L464.845 249.588L469.482 244.951L469.925 245.375L465.289 250.011Z" fill="#C7C7C7"/>
<path d="M469.482 250.011L464.845 245.375L465.289 244.951L469.925 249.588L469.482 250.011Z" fill="#C7C7C7"/>
<path d="M475.59 244.206H474.985V250.757H475.59V244.206Z" fill="#C7C7C7"/>
<path d="M478.552 247.189H472V247.793H478.552V247.189Z" fill="#C7C7C7"/>
<path d="M473.17 250.011L472.747 249.588L477.384 244.951L477.807 245.375L473.17 250.011Z" fill="#C7C7C7"/>
<path d="M477.384 250.011L472.747 245.375L473.17 244.951L477.807 249.588L477.384 250.011Z" fill="#C7C7C7"/>
<path d="M492.805 244.206H492.2V250.757H492.805V244.206Z" fill="#C7C7C7"/>
<path d="M495.788 247.189H489.237V247.793H495.788V247.189Z" fill="#C7C7C7"/>
<path d="M490.407 250.011L489.983 249.588L494.62 244.951L495.043 245.375L490.407 250.011Z" fill="#C7C7C7"/>
<path d="M494.62 250.011L489.983 245.375L490.407 244.951L495.043 249.588L494.62 250.011Z" fill="#C7C7C7"/>
<path d="M500.708 244.206H500.103V250.757H500.708V244.206Z" fill="#C7C7C7"/>
<path d="M503.67 247.189H497.119V247.793H503.67V247.189Z" fill="#C7C7C7"/>
<path d="M498.289 250.011L497.865 249.588L502.502 244.951L502.945 245.375L498.289 250.011Z" fill="#C7C7C7"/>
<path d="M502.502 250.011L497.865 245.375L498.289 244.951L502.945 249.588L502.502 250.011Z" fill="#C7C7C7"/>
<path d="M508.59 244.206H507.985V250.757H508.59V244.206Z" fill="#C7C7C7"/>
<path d="M511.573 247.189H505.021V247.793H511.573V247.189Z" fill="#C7C7C7"/>
<path d="M506.19 250.011L505.767 249.588L510.404 244.951L510.827 245.375L506.19 250.011Z" fill="#C7C7C7"/>
<path d="M510.404 250.011L505.767 245.375L506.19 244.951L510.827 249.588L510.404 250.011Z" fill="#C7C7C7"/>
<path d="M516.492 244.206H515.887V250.757H516.492V244.206Z" fill="#C7C7C7"/>
<path d="M519.455 247.189H512.904V247.793H519.455V247.189Z" fill="#C7C7C7"/>
<path d="M514.072 250.011L513.649 249.588L518.285 244.951L518.729 245.375L514.072 250.011Z" fill="#C7C7C7"/>
<path d="M518.285 250.011L513.649 245.375L514.072 244.951L518.729 249.588L518.285 250.011Z" fill="#C7C7C7"/>
<path d="M533.708 244.206H533.103V250.757H533.708V244.206Z" fill="#C7C7C7"/>
<path d="M536.69 247.189H530.139V247.793H536.69V247.189Z" fill="#C7C7C7"/>
<path d="M531.309 250.011L530.885 249.588L535.522 244.951L535.945 245.375L531.309 250.011Z" fill="#C7C7C7"/>
<path d="M535.522 250.011L530.885 245.375L531.309 244.951L535.945 249.588L535.522 250.011Z" fill="#C7C7C7"/>
<path d="M541.61 244.206H541.005V250.757H541.61V244.206Z" fill="#C7C7C7"/>
<path d="M544.574 247.189H538.022V247.793H544.574V247.189Z" fill="#C7C7C7"/>
<path d="M539.211 250.011L538.767 249.588L543.424 244.951L543.847 245.375L539.211 250.011Z" fill="#C7C7C7"/>
<path d="M543.424 250.011L538.767 245.375L539.211 244.951L543.847 249.588L543.424 250.011Z" fill="#C7C7C7"/>
<path d="M549.512 244.206H548.907V250.757H549.512V244.206Z" fill="#C7C7C7"/>
<path d="M552.475 247.189H545.924V247.793H552.475V247.189Z" fill="#C7C7C7"/>
<path d="M547.094 250.011L546.67 249.588L551.307 244.951L551.73 245.375L547.094 250.011Z" fill="#C7C7C7"/>
<path d="M551.307 250.011L546.67 245.375L547.094 244.951L551.73 249.588L551.307 250.011Z" fill="#C7C7C7"/>
<path d="M557.394 244.206H556.789V250.757H557.394V244.206Z" fill="#C7C7C7"/>
<path d="M560.357 247.189H553.806V247.793H560.357V247.189Z" fill="#C7C7C7"/>
<path d="M554.996 250.011L554.552 249.588L559.189 244.951L559.632 245.375L554.996 250.011Z" fill="#C7C7C7"/>
<path d="M559.189 250.011L554.552 245.375L554.996 244.951L559.632 249.588L559.189 250.011Z" fill="#C7C7C7"/>
<path d="M305.307 491.495H127.424V737.656H305.307V491.495Z" fill="white"/>
<path d="M313.935 482.363H118.816V491.495H313.935V482.363Z" fill="#DBDBDB"/>
<path d="M375.279 482.363H313.915V491.495H375.279V482.363Z" fill="white"/>
<path d="M365.582 491.494H305.307V737.655H365.582V491.494Z" fill="#DBDBDB"/>
<path d="M286.176 605.453H146.555V526.551H286.176V605.453ZM147.079 604.949H285.652V527.015H147.059L147.079 604.949Z" fill="#C7C7C7"/>
<path d="M224.066 549.593H196.892V565.216H224.066V549.593Z" fill="#C7C7C7"/>
<path d="M232.352 564.289H204.673V550.521H232.352V564.289ZM205.177 563.785H231.848V551.024H205.177V563.785Z" fill="#C7C7C7"/>
<path d="M286.176 704.555H146.555V625.613H286.176V704.555ZM147.079 704.051H285.652V626.117H147.059L147.079 704.051Z" fill="#C7C7C7"/>
<path d="M224.066 648.694H196.892V664.317H224.066V648.694Z" fill="#C7C7C7"/>
<path d="M232.352 663.39H204.673V649.622H232.352V663.39ZM205.177 662.886H231.848V650.126H205.177V662.886Z" fill="#C7C7C7"/>
<path d="M255.418 69.3379C258.301 66.5287 261.932 64.5588 265.902 63.6498C269.872 62.7407 274.024 62.9286 277.891 64.1922L265.204 76.5515L269.66 85.675L279.025 90.0157L291.711 77.6406C292.953 81.2475 293.183 85.112 292.378 88.8346C291.573 92.5572 289.762 96.0027 287.132 98.8148C284.502 101.627 281.148 103.704 277.418 104.83C273.688 105.957 269.717 106.092 265.915 105.222C262.114 104.353 258.62 102.509 255.794 99.8833C252.969 97.2572 250.915 93.9435 249.844 90.2849C248.774 86.6262 248.726 82.7555 249.706 79.0729C250.686 75.3902 252.658 72.0294 255.418 69.3379V69.3379Z" fill="#AFBFC2"/>
<path d="M216.532 167.66C213.648 170.468 210.016 172.436 206.045 173.343C202.075 174.249 197.924 174.058 194.059 172.79L206.746 160.431L202.29 151.323L192.941 146.982L180.222 159.31C178.983 155.703 178.755 151.839 179.562 148.117C180.369 144.395 182.182 140.95 184.813 138.14C187.445 135.329 190.799 133.254 194.529 132.13C198.259 131.005 202.23 130.871 206.031 131.742C209.832 132.614 213.325 134.458 216.149 137.085C218.973 139.712 221.026 143.026 222.095 146.685C223.164 150.343 223.21 154.214 222.23 157.896C221.249 161.578 219.276 164.938 216.516 167.629L216.532 167.66Z" fill="#AFBFC2"/>
<path d="M200.124 139.966L213.941 153.427L270.126 98.6912L256.309 85.2306L200.124 139.966Z" fill="#AFBFC2"/>
<path d="M16.6108 737.737L116.639 737.233L216.648 737.072L416.685 736.729L616.722 737.052L716.731 737.233L816.759 737.737L716.731 738.221L616.722 738.402L416.685 738.745L216.648 738.402L116.639 738.221L16.6108 737.737Z" fill="#263238"/>
<path d="M120.954 826.194C170.253 826.194 210.217 818.522 210.217 809.059C210.217 799.595 170.253 791.924 120.954 791.924C71.6547 791.924 31.6899 799.595 31.6899 809.059C31.6899 818.522 71.6547 826.194 120.954 826.194Z" fill="#EBEBEB"/>
<path d="M452.91 841.918C645.542 841.918 801.7 826.602 801.7 807.708C801.7 788.815 645.542 773.499 452.91 773.499C260.279 773.499 104.121 788.815 104.121 807.708C104.121 826.602 260.279 841.918 452.91 841.918Z" fill="#EBEBEB"/>
<path d="M548.988 509.315L543.121 544.552L503.307 759.507H496.897L525.845 544.552L530.119 509.315H548.988Z" fill="#C7C7C7"/>
<path d="M530.119 509.315H548.988L543.121 544.552H525.845L530.119 509.315Z" fill="#A6A6A6"/>
<path d="M673.993 759.507H667.582L627.769 544.552L621.902 509.315H640.771L645.045 544.552L673.993 759.507Z" fill="#C7C7C7"/>
<path d="M640.771 509.315L645.045 544.552H627.769L621.902 509.315H640.771Z" fill="#A6A6A6"/>
<path d="M793.395 759.507H786.964L747.17 544.552L741.284 509.315H760.152L764.446 544.552L793.395 759.507Z" fill="#C7C7C7"/>
<path d="M764.446 544.552H747.17L741.284 509.315H760.152L764.446 544.552Z" fill="#A6A6A6"/>
<path d="M783.215 525.866H491.535V495.144H600.716L657.584 176.592H812.405L783.215 525.866Z" fill="#C7C7C7"/>
<path d="M781.965 495.143H491.535V525.866H783.054L781.965 495.143Z" fill="#DBDBDB"/>
<path d="M783.215 525.866H767.309L797.265 176.592H812.405L783.215 525.866Z" fill="#DBDBDB"/>
<path d="M786.823 132C782.328 127.062 763.923 113.253 748.017 105.794C740.317 102.105 717.053 93.9001 713.747 99.6051C710.441 105.31 717.074 108.314 717.074 108.314C717.074 108.314 706.712 106.298 703.95 112.346C701.188 118.393 711.57 122.727 711.57 122.727C711.57 122.727 700.805 121.457 698.467 127.666C696.128 133.875 707.317 136.496 707.317 136.496C707.317 136.496 697.519 134.883 697.761 140.81C698.043 147.946 716.428 148.874 724.754 153.409C726.649 154.417 761.605 176.814 761.605 176.814L786.823 132Z" fill="#EB9481"/>
<path d="M707.458 136.556C720.984 137.282 726.79 139.963 737.696 147.684C737.918 147.825 738.18 147.543 737.978 147.362C728.02 138.834 721.226 134.44 707.498 135.891C706.792 135.972 706.812 136.516 707.458 136.556Z" fill="#263238"/>
<path d="M711.005 122.425C724.995 124.441 731.305 127.243 743.259 134.521C743.44 134.521 743.622 134.339 743.461 134.218C732.293 126.155 725.439 121.901 711.206 121.76C710.622 121.72 710.42 122.324 711.005 122.425Z" fill="#263238"/>
<path d="M718.222 108.435C731.628 111.338 738.684 114.14 749.408 122.667C749.67 122.869 749.993 122.526 749.751 122.304C739.671 112.527 730.882 108.959 718.363 108.032C717.497 107.971 717.376 108.253 718.222 108.435Z" fill="#263238"/>
<path d="M767.45 184.394C767.45 184.394 750.598 182.237 743.401 179.657C736.204 177.076 713.021 157.643 716.912 152.361C721.972 145.568 737.615 154.155 744.731 159.356C744.731 159.356 756.424 143.633 768.922 147.362C781.421 151.091 767.45 184.394 767.45 184.394Z" fill="#EB9481"/>
<path d="M718.907 150.95C727.999 148.087 736.889 155.526 744.167 160.062C744.272 160.134 744.393 160.179 744.519 160.194C744.646 160.21 744.774 160.194 744.893 160.148C745.012 160.102 745.118 160.028 745.203 159.933C745.287 159.837 745.346 159.722 745.376 159.598C750.718 153.329 760.072 146.051 768.72 146.898C768.774 146.898 768.825 146.877 768.863 146.839C768.901 146.801 768.922 146.75 768.922 146.696C768.922 146.643 768.901 146.592 768.863 146.554C768.825 146.516 768.774 146.495 768.72 146.495C759.568 144.338 749.791 150.748 744.368 157.985C736.99 153.208 727.737 146.152 718.807 150.869C718.827 150.889 718.867 150.97 718.907 150.95Z" fill="#263238"/>
<path d="M624.987 114.946C631.035 112.265 654.52 105.129 672.119 104.665C680.646 104.443 705.24 106.399 705.925 112.95C706.611 119.502 699.354 119.563 699.354 119.563C699.354 119.563 709.615 121.941 709.695 128.574C709.776 135.206 698.507 134.964 698.507 134.964C698.507 134.964 708.869 138.169 708.486 144.802C708.103 151.434 696.793 149.277 696.793 149.277C696.793 149.277 706.409 151.776 703.789 157.098C700.624 163.509 683.428 156.897 673.994 157.623C671.857 157.784 630.833 164.033 630.833 164.033L624.987 114.946Z" fill="#EB9481"/>
<path d="M696.632 149.357C683.972 144.539 677.582 144.62 664.519 147.341C664.256 147.341 664.115 147.039 664.377 146.958C676.957 143.208 684.94 141.959 696.894 148.873C697.478 149.095 697.236 149.579 696.632 149.357Z" fill="#263238"/>
<path d="M699.071 134.984C685.484 131.114 678.569 131.134 664.68 132.969C664.478 132.969 664.418 132.666 664.68 132.626C678.166 129.763 686.149 128.594 699.232 134.359C699.757 134.521 699.696 135.166 699.071 134.984Z" fill="#263238"/>
<path d="M698.225 119.341C684.799 116.539 677.22 116.237 663.955 119.664C663.925 119.674 663.892 119.679 663.86 119.677C663.828 119.675 663.796 119.667 663.767 119.653C663.738 119.639 663.712 119.619 663.691 119.595C663.67 119.571 663.653 119.543 663.643 119.512C663.632 119.482 663.627 119.45 663.629 119.418C663.631 119.385 663.639 119.354 663.653 119.325C663.667 119.296 663.687 119.27 663.711 119.248C663.735 119.227 663.763 119.211 663.794 119.2C676.998 114.382 686.452 114.684 698.286 118.918C699.072 119.16 699.072 119.462 698.225 119.341Z" fill="#263238"/>
<path d="M622.306 168.669C622.306 168.669 638.574 173.548 646.174 174.112C653.774 174.677 682.964 166.371 681.533 160.001C679.658 151.736 661.878 153.228 653.311 155.102C653.311 155.102 649.017 135.972 636.034 134.278C623.052 132.585 622.306 168.669 622.306 168.669Z" fill="#EB9481"/>
<path d="M680.303 157.865C673.167 151.535 662.019 154.72 653.532 155.849C653.407 155.873 653.277 155.867 653.155 155.831C653.032 155.795 652.92 155.729 652.829 155.639C652.738 155.55 652.67 155.44 652.63 155.318C652.591 155.197 652.582 155.067 652.605 154.941C650.286 147.059 644.702 136.597 636.477 133.855C636.235 133.855 636.316 133.412 636.477 133.472C645.73 135.206 652.06 145.023 654.056 153.853C662.744 152.482 674.074 149.821 680.263 157.723C680.404 157.844 680.363 157.905 680.303 157.865Z" fill="#263238"/>
<path d="M671.352 238.702C625.229 226.244 552.596 184.535 559.269 164.456C565.74 144.943 592.974 124.542 627.809 113.696C632.889 112.104 631.841 122.768 634.199 141.354C635.348 150.144 650.77 173.83 643.331 173.77C639.443 173.888 635.612 174.743 632.042 176.29C629.321 177.338 662.039 199.19 680.323 212.898C704.957 231.283 691.048 244.004 671.352 238.702Z" fill="#EB9481"/>
<path d="M604.768 224.55L655.891 192.538C655.891 192.538 686.593 211.205 694.193 221.546C701.793 231.888 695.806 243.076 672.018 243.096C644.663 243.116 604.768 224.55 604.768 224.55Z" fill="#5A74CA"/>
<g opacity="0.1">
<path opacity="0.1" d="M668.973 200.964H642.464L647.181 198.021H664.558L668.973 200.964Z" fill="black"/>
<path opacity="0.1" d="M682.459 210.64H626.982L631.679 207.697H678.569L682.459 210.64Z" fill="black"/>
<path opacity="0.1" d="M693.164 220.296H611.561L616.258 217.353H690.362C691.431 218.381 692.378 219.369 693.164 220.296Z" fill="black"/>
<path opacity="0.1" d="M697.256 229.973H617.669C614.867 228.884 612.407 227.957 610.412 227.029H696.893C697.159 227.987 697.281 228.979 697.256 229.973V229.973Z" fill="black"/>
<path opacity="0.1" d="M694.353 236.706C693.179 237.895 691.817 238.883 690.321 239.629H647.504C643.916 238.742 640.368 237.754 636.92 236.706H694.353Z" fill="black"/>
</g>
<path d="M618.274 228.481C638.857 215.902 659.237 201.71 662.624 198.949C662.765 198.828 662.624 198.606 662.422 198.686C647.061 207.634 632.251 217.496 618.073 228.219C618.038 228.246 618.015 228.285 618.01 228.329C618.004 228.372 618.016 228.416 618.043 228.451C618.069 228.486 618.109 228.509 618.152 228.514C618.196 228.52 618.24 228.508 618.274 228.481V228.481Z" fill="#263238"/>
<path d="M671.978 243.096C661.933 242.777 651.973 241.157 642.344 238.279C655.71 229.308 671.595 218.724 683.227 211.245C687.278 214.224 690.954 217.683 694.173 221.547C701.753 231.868 695.786 243.076 671.978 243.096Z" fill="#263238"/>
<path d="M502.825 800.471C508.509 801.015 662.947 764.184 667.805 759.225C668.41 758.661 665.366 744.63 660.911 725.479V725.096C658.109 713.001 613.134 614.827 613.134 614.827L513.025 642.727L558.504 733.785C558.504 733.785 539.655 747.392 523.528 760.395C513.549 768.337 504.941 775.453 503.127 777.772C498.269 783.759 497.18 799.967 502.825 800.471Z" fill="#EB9481"/>
<path d="M502.845 800.451C508.489 800.996 662.927 764.165 667.825 759.226C668.41 758.662 665.366 744.631 660.911 725.48V725.117C659.903 720.602 652.968 704.092 644.784 685.203C628.314 689.617 569.248 705.583 547.799 712.216L558.584 733.806C558.584 733.806 539.655 747.413 523.528 760.395C513.549 768.318 504.941 775.454 503.127 777.752C498.269 783.76 497.16 799.988 502.845 800.451Z" fill="#EBEBEB"/>
<path d="M502.32 801.196C508.167 801.7 662.705 764.507 667.624 759.366C669.519 757.35 666.112 733.039 657.645 707.195L558.04 731.386C558.04 731.386 507.179 771.703 502.3 777.872C497.422 784.041 496.495 800.712 502.32 801.196Z" fill="#4B1800"/>
<path d="M503.046 794.483C528.809 787.609 633.333 762.229 659.298 757.491C659.52 757.491 659.56 757.592 659.298 757.653C633.938 765.011 529.212 789.464 503.106 794.906C502.602 795.027 502.502 794.665 503.046 794.483Z" fill="#263238"/>
<path d="M510.968 769.85C513.831 769.079 516.823 768.91 519.755 769.354C522.687 769.798 525.495 770.846 528.002 772.43C532.52 775.256 535.782 779.708 537.114 784.868C537.114 785.029 536.872 785.11 536.811 784.868C534.693 779.95 531.037 775.851 526.392 773.187C521.747 770.523 516.363 769.437 511.048 770.091C511.025 770.083 511.004 770.07 510.987 770.052C510.97 770.035 510.956 770.014 510.949 769.99C510.941 769.967 510.939 769.942 510.942 769.918C510.945 769.893 510.954 769.87 510.968 769.85V769.85Z" fill="#263238"/>
<path d="M550.62 735.841C560.962 733.201 573.864 733.967 582.351 740.901C582.673 741.183 582.351 741.627 581.947 741.546C571.731 738.981 561.269 737.515 550.741 737.172C550.588 737.151 550.446 737.079 550.339 736.966C550.231 736.854 550.165 736.709 550.151 736.555C550.137 736.4 550.176 736.246 550.261 736.116C550.346 735.986 550.473 735.89 550.62 735.841V735.841Z" fill="#263238"/>
<path d="M543.364 740.901C553.706 738.26 566.608 739.026 575.094 745.961C575.417 746.223 575.094 746.687 574.691 746.606C564.48 744.05 554.026 742.59 543.505 742.252C543.417 742.261 543.327 742.253 543.242 742.227C543.156 742.202 543.076 742.16 543.007 742.104C542.938 742.048 542.88 741.978 542.838 741.9C542.795 741.822 542.769 741.736 542.76 741.647C542.75 741.558 542.759 741.469 542.784 741.383C542.809 741.298 542.851 741.218 542.907 741.149C542.964 741.08 543.033 741.022 543.111 740.98C543.19 740.937 543.276 740.91 543.364 740.901Z" fill="#263238"/>
<path d="M536.107 745.941C546.448 743.3 559.35 744.066 567.837 751.001C568.159 751.263 567.837 751.727 567.434 751.646C557.226 749.073 546.77 747.606 536.248 747.271C536.093 747.254 535.949 747.184 535.839 747.073C535.729 746.963 535.66 746.818 535.644 746.663C535.628 746.508 535.664 746.352 535.749 746.221C535.833 746.089 535.959 745.991 536.107 745.941V745.941Z" fill="#263238"/>
<path d="M528.87 751.001C539.191 748.36 552.093 749.126 560.58 756.04C560.902 756.323 560.58 756.786 560.177 756.706C549.966 754.142 539.512 752.676 528.991 752.331C528.814 752.347 528.639 752.292 528.503 752.179C528.366 752.066 528.281 751.903 528.265 751.726C528.249 751.55 528.304 751.374 528.417 751.238C528.53 751.102 528.693 751.017 528.87 751.001V751.001Z" fill="#263238"/>
<path d="M646.779 734.47C658.431 731.708 662.745 749.791 651.093 752.613C639.441 755.435 635.127 737.232 646.779 734.47Z" fill="#263238"/>
<path d="M537.235 725.883C544.573 731.749 554.189 734.249 562.797 737.575C562.995 737.632 563.203 737.642 563.405 737.603C563.607 737.565 563.797 737.479 563.96 737.354C564.123 737.228 564.254 737.066 564.343 736.88C564.431 736.694 564.475 736.49 564.47 736.285C564.513 736.285 564.556 736.274 564.594 736.254C564.632 736.233 564.664 736.204 564.688 736.168C564.712 736.132 564.727 736.091 564.731 736.048C564.735 736.005 564.729 735.962 564.712 735.922C561.665 726.607 556.213 718.263 548.907 711.731C544.593 707.981 536.953 705.321 532.78 710.945C528.789 716.186 532.962 722.456 537.235 725.883ZM534.695 717.396C533.002 705.865 545.279 712.094 548.343 714.977C550.305 716.867 552.137 718.887 553.826 721.024C557.236 725.512 560.418 730.168 563.361 734.974C559.229 733.079 554.975 731.547 550.782 729.814C545.702 727.778 535.623 723.766 534.695 717.396Z" fill="#263238"/>
<path d="M599.95 720.44C597.511 713.868 589.427 714.251 584.226 716.63C575.364 720.848 567.771 727.329 562.212 735.418C562.188 735.454 562.173 735.495 562.167 735.537C562.161 735.58 562.165 735.623 562.179 735.664C562.193 735.705 562.215 735.742 562.246 735.773C562.276 735.804 562.313 735.827 562.353 735.841C562.29 736.037 562.274 736.244 562.305 736.447C562.337 736.649 562.416 736.842 562.536 737.009C562.655 737.175 562.812 737.312 562.994 737.407C563.176 737.501 563.378 737.552 563.583 737.555C572.776 736.789 582.714 737.111 591.402 733.523C596.482 731.467 602.268 726.649 599.95 720.44ZM577.291 733.543C572.776 734.027 568.26 734.289 563.764 734.934C567.948 731.153 572.322 727.587 576.868 724.25C579.083 722.647 581.414 721.212 583.843 719.956C587.592 718.061 601.119 715.562 596.241 726.145C593.559 731.971 582.674 732.959 577.291 733.543Z" fill="#263238"/>
<path d="M549.573 721.931L655.871 693.467C655.871 693.467 562.455 499.76 569.994 489.096C573.764 483.774 673.389 479.278 704.293 451.439C744.429 415.294 715.219 362.74 715.219 362.74H603.821C603.821 362.74 605.837 385.983 601.603 389.611C598.821 392.03 466.539 407.129 453.294 452.326C437.066 507.743 549.573 721.931 549.573 721.931Z" fill="#263238"/>
<path d="M547.718 706.348C550.538 705.039 553.448 703.934 556.427 703.042C559.511 701.974 562.615 700.905 565.7 699.877C571.747 697.861 577.956 695.966 584.125 694.192C596.563 690.604 609.001 687.097 621.54 683.831C628.071 682.137 642.042 678.448 642.929 678.569C643.332 678.569 643.433 679.335 643.07 679.476C630.974 683.871 618.677 687.641 606.401 691.471C594.124 695.301 581.847 699.031 569.409 702.236C565.962 703.123 562.494 703.929 559.047 704.776C555.44 705.842 551.762 706.65 548.04 707.195C547.718 707.215 547.315 706.53 547.718 706.348Z" fill="#455A64"/>
<path d="M550.681 480.427C552.878 478.412 556.224 478.129 559.006 477.565L606.964 468.09C621.922 465.127 636.981 462.426 651.858 459.079C664.175 456.317 676.674 452.729 687.197 445.673C697.494 438.741 704.957 428.338 708.223 416.362C711.63 404.448 711.509 391.748 709.977 379.552C709.594 376.569 708.948 373.605 708.303 370.662C708.303 370.44 708.626 370.36 708.666 370.662C713.424 393.361 714.573 419.85 698.022 438.537C689.959 447.649 678.65 453.213 667.078 456.922C653.995 461.135 640.287 463.353 626.76 466.014L578.802 475.489C571.102 477 563.28 478.25 555.66 480.085C554.112 480.33 552.673 481.032 551.527 482.101C550.995 482.924 550.672 483.864 550.584 484.841C550.496 485.817 550.647 486.8 551.023 487.705C551.91 491.454 553.039 495.184 554.229 498.853C563.905 528.567 631.679 669.256 633.514 672.502C633.715 672.845 633.171 673.127 632.969 672.784C617.447 646.94 566.929 538.324 556.365 510.263C553.59 503.081 551.28 495.728 549.451 488.249C548.806 485.548 548.403 482.524 550.681 480.427Z" fill="#455A64"/>
<path d="M230.8 804.341C236.081 806.458 394.631 814.562 400.719 811.115C401.445 810.752 402.473 796.419 403.562 776.845L404.368 758.339C404.65 752.09 486.274 661.112 486.274 661.112L372.477 654.238L302.888 756.02C302.888 756.02 280.975 763.782 261.844 771.644C249.991 776.522 239.75 780.856 237.271 782.57C231.223 787.025 225.498 802.285 230.8 804.341Z" fill="#EB9481"/>
<path d="M425.171 730.983C413.318 745.094 404.468 756.242 404.388 758.298L403.561 776.804C402.472 796.419 401.444 810.752 400.719 811.074C394.671 814.522 236.081 806.418 230.779 804.321C225.477 802.225 231.101 786.985 237.351 782.529C239.749 780.836 250.01 776.482 261.803 771.583C280.914 763.741 302.827 755.98 302.827 755.98L322.986 726.588L425.171 730.983Z" fill="#EBEBEB"/>
<path d="M230.094 804.906C235.557 807.042 394.329 814.743 400.578 811.215C402.957 809.885 406.626 785.533 405.658 758.359L303.291 753.5C303.291 753.5 243.157 777.852 236.766 782.449C230.376 787.045 224.651 802.728 230.094 804.906Z" fill="#4B1800"/>
<path d="M232.695 798.696C259.345 799.321 366.752 804.421 393.039 807.082C393.261 807.082 393.261 807.244 393.039 807.244C366.611 807.244 259.244 801.196 232.675 799.18C232.11 799.059 232.13 798.696 232.695 798.696Z" fill="#263238"/>
<path d="M247.209 777.248C250.176 777.311 253.097 777.99 255.786 779.243C258.476 780.496 260.876 782.295 262.833 784.525C266.382 788.501 268.259 793.693 268.074 799.019C268.074 799.181 267.772 799.16 267.751 799.019C267.104 793.707 264.752 788.748 261.049 784.884C257.345 781.021 252.49 778.462 247.209 777.59C247.164 777.59 247.12 777.572 247.088 777.54C247.056 777.508 247.038 777.464 247.038 777.419C247.038 777.374 247.056 777.33 247.088 777.298C247.12 777.266 247.164 777.248 247.209 777.248Z" fill="#263238"/>
<path d="M294.824 755.758C305.468 756.121 317.644 760.496 323.832 769.527C324.074 769.87 323.57 770.212 323.268 770.031C314.189 764.699 304.565 760.354 294.562 757.069C294.42 757.005 294.304 756.895 294.233 756.757C294.162 756.619 294.14 756.461 294.171 756.309C294.201 756.157 294.282 756.019 294.401 755.919C294.52 755.819 294.669 755.763 294.824 755.758V755.758Z" fill="#263238"/>
<path d="M286.438 758.56C297.102 758.943 309.258 763.297 315.467 772.328C315.689 772.671 315.205 773.014 314.882 772.832C305.81 767.501 296.193 763.155 286.196 759.87C286.022 759.838 285.869 759.738 285.768 759.593C285.668 759.447 285.63 759.268 285.662 759.094C285.694 758.92 285.794 758.766 285.939 758.666C286.085 758.566 286.264 758.528 286.438 758.56V758.56Z" fill="#263238"/>
<path d="M278.052 761.382C288.716 761.745 300.892 766.099 307.08 775.131C307.322 775.494 306.818 775.816 306.516 775.655C297.441 770.309 287.817 765.956 277.81 762.672C277.662 762.618 277.537 762.514 277.459 762.377C277.381 762.24 277.354 762.08 277.383 761.925C277.413 761.77 277.496 761.63 277.618 761.531C277.74 761.432 277.894 761.379 278.052 761.382V761.382Z" fill="#263238"/>
<path d="M269.666 764.185C280.33 764.547 292.506 768.902 298.695 777.953C298.937 778.296 298.433 778.638 298.13 778.457C289.084 773.125 279.494 768.773 269.525 765.475C269.382 765.426 269.26 765.33 269.179 765.202C269.098 765.075 269.063 764.923 269.08 764.773C269.096 764.623 269.163 764.483 269.27 764.376C269.376 764.269 269.516 764.202 269.666 764.185Z" fill="#263238"/>
<path d="M387.494 781.461C399.449 782.066 398.501 800.653 386.527 800.028C374.552 799.403 375.52 780.836 387.494 781.461Z" fill="#263238"/>
<path d="M284.765 742.433C290.168 750.134 298.695 755.214 306.033 760.839C306.207 760.959 306.409 761.035 306.619 761.06C306.83 761.086 307.043 761.06 307.242 760.984C307.44 760.909 307.617 760.787 307.757 760.628C307.898 760.469 307.998 760.279 308.048 760.073C308.09 760.082 308.134 760.081 308.175 760.071C308.217 760.061 308.255 760.042 308.288 760.015C308.321 759.988 308.348 759.953 308.366 759.914C308.383 759.875 308.392 759.833 308.391 759.79C308.049 750.006 305.143 740.482 299.965 732.173C296.88 727.375 290.288 722.658 284.684 726.871C279.08 731.084 281.62 737.938 284.765 742.433ZM284.765 733.584C286.398 722.053 296.417 731.447 298.554 735.096C299.905 737.463 301.091 739.922 302.102 742.454C304.119 747.738 305.868 753.12 307.343 758.581C303.916 755.597 300.247 752.936 296.719 750.094C292.445 746.647 283.817 739.934 284.704 733.584H284.765Z" fill="#263238"/>
<path d="M346.491 754.831C345.987 747.836 338.125 745.941 332.38 746.768C322.691 748.338 313.585 752.425 305.972 758.621C305.938 758.647 305.911 758.681 305.893 758.72C305.874 758.758 305.864 758.8 305.864 758.843C305.864 758.886 305.874 758.928 305.893 758.966C305.911 759.004 305.938 759.038 305.972 759.065C305.846 759.234 305.764 759.431 305.732 759.639C305.701 759.848 305.721 760.061 305.79 760.26C305.86 760.458 305.977 760.637 306.132 760.78C306.286 760.923 306.474 761.026 306.677 761.08C315.729 762.955 325.163 766.06 334.497 765.112C340.081 764.427 346.955 761.443 346.491 754.831ZM321.071 761.04C316.596 760.234 312.181 759.206 307.685 758.581C312.765 756.123 317.966 753.923 323.268 751.989C325.843 751.089 328.476 750.368 331.15 749.832C335.303 749.066 348.991 750.477 341.331 759.266C337.117 764.104 326.393 762.008 321.071 761.04Z" fill="#263238"/>
<path d="M298.03 734.692L425.172 750.315C425.172 750.315 550.903 599.889 561.064 589.87C592.552 558.825 705.442 505.202 739.128 455.41C769.366 410.637 738.744 362.8 738.744 362.8H614.606C617.788 376.025 622.021 388.974 627.266 401.525C627.266 401.525 524.153 479.157 469.199 534.574C433.78 570.316 298.03 734.692 298.03 734.692Z" fill="#263238"/>
<path d="M605.192 393.502C608.819 394.2 612.374 395.225 615.816 396.566C619.404 397.816 622.952 399.268 626.439 400.82C633.272 403.962 639.927 407.475 646.376 411.343C646.578 411.464 646.376 411.746 646.195 411.645C639.381 408.359 632.366 405.436 625.331 402.634L615.251 398.602C611.76 397.391 608.335 395.998 604.99 394.43C604.486 394.309 604.708 393.502 605.192 393.502Z" fill="#455A64"/>
<path d="M611.723 362.759C613.315 368.383 614.727 374.048 616.501 379.612C617.327 382.152 618.133 384.753 619.182 387.232C620.069 389.248 621.379 391.667 623.838 392.07C626.661 392.534 627.407 390.054 627.104 387.797C626.678 385.203 626.12 382.633 625.431 380.096C624.766 377.173 621.399 362.981 621.399 362.9C621.399 362.82 621.399 362.638 621.54 362.477C621.574 362.447 621.617 362.431 621.661 362.431C621.706 362.431 621.749 362.447 621.782 362.477C622.326 362.759 625.814 373.665 626.54 376.366C627.265 379.068 628.052 381.789 628.797 384.43C629.565 386.425 629.821 388.58 629.543 390.699C629.314 391.708 628.767 392.616 627.983 393.291C627.199 393.965 626.22 394.371 625.189 394.449C625.29 394.63 625.411 394.792 625.512 394.993C625.774 395.538 625.975 396.122 626.197 396.687C626.419 397.251 626.64 397.856 626.842 398.44C626.922 398.725 626.982 399.015 627.023 399.307C627.023 399.65 627.023 399.973 627.023 400.295C627.069 400.41 627.067 400.538 627.018 400.652C626.969 400.765 626.876 400.854 626.761 400.9C626.646 400.945 626.518 400.943 626.405 400.894C626.291 400.845 626.202 400.753 626.157 400.638C625.995 400.356 625.774 400.134 625.592 399.852C625.419 399.558 625.277 399.247 625.169 398.924C624.967 398.36 624.786 397.795 624.625 397.231C624.463 396.666 624.262 396.082 624.141 395.517C624.074 395.171 624.027 394.821 624 394.469C622.813 394.397 621.669 394 620.694 393.32C619.062 392.002 617.838 390.247 617.166 388.26C616.238 385.922 615.513 383.503 614.767 381.104C612.858 375.19 611.475 369.118 610.634 362.961C610.608 362.816 610.639 362.667 610.722 362.546C610.806 362.425 610.933 362.342 611.078 362.316C611.222 362.289 611.371 362.321 611.492 362.404C611.613 362.487 611.696 362.615 611.723 362.759Z" fill="#455A64"/>
<path d="M685.887 374.432C686.492 377.214 686.895 380.036 687.621 382.818C688.347 385.6 689.153 388.221 690.141 390.882C691.012 393.444 692.248 395.868 693.81 398.079C695.421 400.161 697.33 401.994 699.475 403.521C703.565 406.574 708.127 408.937 712.981 410.517C715.421 411.349 717.913 412.022 720.44 412.532C721.75 412.774 723.06 412.976 724.472 413.097C725.565 413.106 726.646 413.325 727.657 413.742C727.753 413.799 727.832 413.88 727.888 413.978C727.943 414.075 727.972 414.185 727.972 414.296C727.972 414.408 727.943 414.518 727.888 414.615C727.832 414.712 727.753 414.794 727.657 414.851C725.765 415.475 723.744 415.6 721.79 415.214C715.334 414.753 709.064 412.845 703.446 409.63C699.659 407.625 696.248 404.979 693.366 401.808C690.625 398.468 688.687 394.544 687.702 390.337C686.249 385.215 685.509 379.917 685.504 374.593C685.518 374.557 685.538 374.523 685.565 374.495C685.592 374.466 685.624 374.444 685.66 374.429C685.696 374.413 685.735 374.406 685.774 374.407C685.813 374.407 685.852 374.416 685.887 374.432V374.432Z" fill="#455A64"/>
<path d="M325.97 716.045C329.402 715.957 332.836 716.092 336.251 716.448C339.859 716.69 343.447 716.912 347.036 717.194C354.111 717.779 361.147 718.424 368.203 719.21C382.314 720.823 396.586 722.496 410.718 724.451C418.096 725.48 433.921 727.596 434.767 728.06C434.852 728.116 434.918 728.198 434.954 728.293C434.99 728.388 434.994 728.493 434.968 728.591C434.941 728.689 434.884 728.777 434.804 728.841C434.725 728.904 434.627 728.942 434.525 728.947C420.414 728.201 406.303 726.83 392.192 725.5C378.08 724.169 363.969 722.778 349.858 720.823C345.987 720.278 342.117 719.633 338.226 719.049C334.098 718.615 330.004 717.908 325.97 716.932C325.587 716.771 325.506 716.045 325.97 716.045Z" fill="#455A64"/>
<path d="M599.668 560.821C593.076 565.055 586.705 569.611 580.315 574.126C574.214 578.098 568.357 582.434 562.777 587.109C560.026 589.698 557.434 592.451 555.016 595.354L547.436 604.123C542.376 609.949 537.356 615.835 532.377 621.742C529.555 625.061 526.753 628.421 523.971 631.821C521.068 635.309 518.367 638.978 515.444 642.465C515.409 642.509 515.392 642.564 515.396 642.62C515.4 642.675 515.424 642.727 515.465 642.765C515.506 642.804 515.559 642.825 515.615 642.825C515.671 642.826 515.725 642.805 515.766 642.768C520.927 636.942 526.41 631.358 531.571 625.511C536.731 619.665 541.892 613.819 546.992 607.893C552.093 601.966 556.648 596.261 561.89 590.838C567.25 585.77 573.067 581.209 579.267 577.211C586.322 572.171 593.378 567.131 600.292 561.87C600.877 561.426 600.333 560.459 599.668 560.821Z" fill="#455A64"/>
<path d="M625.27 402.392C604.063 417.269 582.13 433.9 562.193 450.411C542.255 466.921 522.52 483.774 503.248 501.11C497.872 505.948 492.496 510.854 487.121 515.826C481.758 520.826 476.517 527.095 471.155 532.095C470.873 532.357 471.316 532.78 471.598 532.518C481.295 523.829 491.314 514.375 501.131 505.827C510.949 497.28 520.685 488.894 530.503 480.488C550.232 463.594 570.209 446.99 590.435 430.675C601.644 421.583 614.626 412.391 625.713 403.017C626.137 402.715 625.633 402.11 625.27 402.392Z" fill="#455A64"/>
<path d="M734.975 377.375C733.765 373.807 732.475 370.259 731.144 366.711C731.144 366.509 730.741 366.711 730.822 366.812C735.821 381.568 740.901 396.687 741.466 412.411C741.816 419.941 740.721 427.468 738.24 434.586C735.649 441.388 731.806 447.645 726.911 453.032C717.033 464.179 704.474 472.969 692.641 481.859C679.739 491.522 666.629 500.929 653.311 510.081C640.046 519.193 626.439 527.882 612.691 536.288C598.942 544.694 585.033 552.274 571.365 560.479C564.738 564.394 558.536 568.988 552.859 574.187C547.134 579.549 542.013 585.496 536.853 591.402C525.806 604.022 514.866 616.736 504.034 629.543C482.276 655.078 460.954 680.995 440.07 707.296C437.516 710.495 434.963 713.713 432.409 716.952C432.288 717.114 432.409 717.335 432.631 717.174C454.134 690.846 475.872 664.707 497.845 638.756C508.758 625.854 519.731 613.02 530.765 600.252C541.348 588.036 551.528 575.074 565.035 565.982C571.546 561.547 578.501 557.777 585.335 553.887C592.498 549.855 599.594 545.702 606.623 541.428C620.64 533.002 634.429 524.267 647.989 515.222C661.475 506.191 674.78 496.938 687.843 487.282C694.348 482.47 700.812 477.565 707.236 472.566C712.792 468.363 718.115 463.861 723.182 459.079C728.192 454.343 732.496 448.912 735.962 442.952C739.448 436.649 741.609 429.7 742.313 422.531C743.845 407.15 739.833 391.769 734.975 377.375Z" fill="#455A64"/>
<path d="M594.527 384.612C596.744 388.845 751.767 424.688 752.855 423.982C755.556 421.966 764.447 280.007 723.544 216.506C716.347 205.318 698.849 203.242 689.838 205.58C685.343 206.75 666.857 222.494 658.39 238.238C649.924 253.982 593.156 381.911 594.527 384.612Z" fill="#5A74CA"/>
<g opacity="0.1">
<path opacity="0.1" d="M717.799 210.64H682.098C683.509 209.471 684.819 208.483 685.968 207.697H712.477C714.361 208.465 716.147 209.453 717.799 210.64V210.64Z" fill="black"/>
<path opacity="0.1" d="M725.863 220.297H671.816C672.764 219.269 673.732 218.281 674.679 217.354H724.068C724.693 218.321 725.278 219.289 725.863 220.297Z" fill="black"/>
<path opacity="0.1" d="M730.983 229.973H663.693C664.419 228.965 665.185 227.957 665.951 227.03H729.532C730.036 227.997 730.5 228.985 730.983 229.973Z" fill="black"/>
<path opacity="0.1" d="M735.197 239.629H657.686L658.391 238.238C658.673 237.734 658.956 237.21 659.258 236.706H733.967C734.37 237.673 734.773 238.641 735.197 239.629Z" fill="black"/>
<path opacity="0.1" d="M738.664 249.305H652.988C653.492 248.257 653.956 247.289 654.379 246.362H737.656C737.999 247.329 738.341 248.357 738.664 249.305Z" fill="black"/>
<path opacity="0.1" d="M741.647 258.981H648.513L649.864 256.038H740.781C741.083 257.005 741.365 257.993 741.647 258.981Z" fill="black"/>
<path opacity="0.1" d="M744.187 268.638H644.098C644.542 267.63 644.985 266.622 645.429 265.694H743.462L744.187 268.638Z" fill="black"/>
<path opacity="0.1" d="M746.385 278.314H639.704C640.148 277.326 640.611 276.298 641.035 275.37H745.74C745.962 276.338 746.184 277.326 746.385 278.314Z" fill="black"/>
<path opacity="0.1" d="M748.239 287.99H635.349C635.793 287.002 636.216 285.974 636.659 285.046H747.695C747.896 286.014 748.078 287.002 748.239 287.99Z" fill="black"/>
<path opacity="0.1" d="M749.872 297.646H631.056C631.499 296.658 631.922 295.63 632.366 294.703H749.308L749.872 297.646Z" fill="black"/>
<path opacity="0.1" d="M751.324 307.322H626.762C627.186 306.354 627.629 305.306 628.052 304.379H750.84C750.982 305.367 751.103 306.334 751.324 307.322Z" fill="black"/>
<path opacity="0.1" d="M752.392 316.898H622.508C622.931 315.91 623.354 314.882 623.798 313.954H752.049C752.17 315.023 752.271 315.99 752.392 316.898Z" fill="black"/>
<path opacity="0.1" d="M753.34 326.655H618.275C618.678 325.687 619.122 324.639 619.545 323.712H753.058C753.158 324.699 753.34 325.667 753.34 326.655Z" fill="black"/>
<path opacity="0.1" d="M754.105 336.331H614.061C614.464 335.363 614.908 334.315 615.331 333.388H753.883C753.964 334.375 754.045 335.343 754.105 336.331Z" fill="black"/>
<path opacity="0.1" d="M754.71 345.987H609.889L611.139 343.044H754.549C754.61 344.032 754.65 345.121 754.71 345.987Z" fill="black"/>
<path opacity="0.1" d="M755.134 355.663H605.756L607.006 352.72H755.033C755.074 353.708 755.114 354.696 755.134 355.663Z" fill="black"/>
<path opacity="0.1" d="M755.356 365.279H601.705L602.934 362.336H755.356V365.279Z" fill="black"/>
<path opacity="0.1" d="M755.556 374.996H597.792C598.135 374.069 598.538 373.081 598.942 372.053H755.536C755.556 373.041 755.556 374.029 755.556 374.996Z" fill="black"/>
<path opacity="0.1" d="M755.557 381.729C755.557 382.717 755.557 383.745 755.557 384.672H594.568C594.629 383.675 594.875 382.697 595.294 381.789L755.557 381.729Z" fill="black"/>
<path opacity="0.1" d="M755.355 391.486C755.355 392.494 755.355 393.502 755.355 394.43H626.338C622.306 393.401 618.657 392.414 615.25 391.486H755.355Z" fill="black"/>
<path opacity="0.1" d="M755.113 401.062C755.113 402.069 755.113 403.077 754.992 404.005H665.244C661.213 403.017 657.181 401.989 653.149 401.062H755.113Z" fill="black"/>
<path opacity="0.1" d="M754.589 410.718C754.589 411.746 754.448 412.733 754.367 413.661H705.986L693.387 410.718H754.589Z" fill="black"/>
<path opacity="0.1" d="M753.662 420.394C753.565 421.387 753.389 422.371 753.138 423.337H749.106C746.083 422.732 741.386 421.704 735.479 420.394H753.662Z" fill="black"/>
</g>
<path d="M716.549 249.164C744.429 246.906 790.634 236.907 815.772 222.957C830.851 214.531 833.129 203.222 833.915 195.319C835.931 174.878 801.862 141.697 783.961 129.319C781.602 127.686 778.175 139.701 767.33 153.187C758.157 164.617 740.861 177.519 743.462 179.716C747.292 182.942 765.052 195.178 764.205 196.65C762.754 199.17 746.284 206.165 721.609 218.119C688.508 234.085 696.894 250.776 716.549 249.164Z" fill="#EB9481"/>
<path d="M789.887 241.282L742.07 204.512C742.07 204.512 709.715 220.155 701.187 229.711C692.66 239.266 697.518 250.978 721.225 253.297C748.4 255.937 789.887 241.282 789.887 241.282Z" fill="#5A74CA"/>
<path d="M777.853 242.431C759.71 226.445 740.256 211.124 736.608 208.665C736.446 208.564 736.285 208.806 736.406 208.927C749.469 221.002 763.25 232.278 777.671 242.693C777.812 242.794 777.994 242.552 777.853 242.431Z" fill="#263238"/>
<path d="M748.884 249.567C745.277 250.183 741.841 251.557 738.804 253.599C737.362 254.675 736.068 255.936 734.954 257.349C734.378 258.026 733.866 258.755 733.422 259.526C732.971 260.256 732.587 261.025 732.273 261.824C732.273 262.005 732.475 262.106 732.575 261.985C733.16 261.401 733.644 260.715 734.249 260.131C734.853 259.546 735.398 258.921 736.023 258.357C737.291 257.16 738.638 256.049 740.054 255.03C742.722 252.842 745.76 251.149 749.025 250.031C749.055 250.022 749.084 250.007 749.108 249.986C749.133 249.966 749.153 249.941 749.168 249.913C749.183 249.885 749.193 249.854 749.196 249.823C749.199 249.791 749.196 249.759 749.186 249.729C749.177 249.698 749.162 249.67 749.142 249.645C749.121 249.621 749.097 249.6 749.069 249.585C749.04 249.57 749.01 249.561 748.978 249.558C748.946 249.555 748.914 249.558 748.884 249.567Z" fill="#263238"/>
<g opacity="0.1">
<path opacity="0.1" d="M750.032 210.64H730.115C732.131 209.552 734.147 208.624 735.719 207.697H746.202L750.032 210.64Z" fill="black"/>
<path opacity="0.1" d="M762.591 220.297H713.424C714.956 219.309 716.569 218.281 718.181 217.354H758.761L762.591 220.297Z" fill="black"/>
<path opacity="0.1" d="M775.171 229.973H700.925L701.147 229.711C702.025 228.753 702.968 227.858 703.969 227.03H771.32L775.171 229.973Z" fill="black"/>
<path opacity="0.1" d="M787.73 239.629H697.337C697.226 238.654 697.267 237.668 697.458 236.706H783.94L787.73 239.629Z" fill="black"/>
<path opacity="0.1" d="M773.215 246.342C769.627 247.309 765.615 248.357 761.362 249.285H705.441C703.846 248.503 702.361 247.513 701.026 246.342H773.215Z" fill="black"/>
</g>
<path d="M685.686 231.808C693.749 235.154 710.058 224.833 717.416 215.479C717.9 214.834 719.694 186.128 720.641 180.463C720.823 179.314 683.73 183.164 683.73 183.164C684.576 190.57 684.508 198.051 683.529 205.44C683.388 206.266 677.965 228.562 685.686 231.808Z" fill="#EB9481"/>
<path d="M682.904 207.717C682.904 207.838 682.904 207.959 682.783 208.1H682.965C684.089 208.456 685.243 208.712 686.412 208.866C705.764 211.648 716.207 189.03 719.533 180.22C713.485 180.039 683.731 183.123 683.731 183.123C684.576 190.529 684.508 198.01 683.529 205.399C683.529 205.681 683.428 205.943 683.388 206.185C683.275 206.71 683.113 207.223 682.904 207.717V207.717Z" fill="#263238"/>
<path d="M678.873 117.063C678.873 117.063 666.777 121.941 664.439 134.158C662.1 146.374 664.761 159.235 665.81 159.881C666.858 160.526 678.873 117.063 678.873 117.063Z" fill="#263238"/>
<path d="M725.5 135.327C729.351 148.088 722.557 184.898 713.405 193.102C700.241 204.976 678.732 206.065 668.652 190.24C658.875 174.919 668.652 127.102 678.732 119.684C693.73 108.697 719.775 116.498 725.5 135.327Z" fill="#EB9481"/>
<path d="M666.091 149.357C665.319 152.736 664.847 156.176 664.68 159.638C664.438 163.206 664.397 166.775 664.418 170.343C664.418 170.544 664.74 170.524 664.74 170.343C664.74 166.835 664.982 163.327 665.284 159.84C665.587 156.352 666.151 152.885 666.333 149.398C666.353 149.236 666.131 149.236 666.091 149.357Z" fill="#263238"/>
<path d="M688.83 157.642C688.83 157.542 689.012 157.784 688.992 157.884C688.467 160.364 688.286 163.267 690.383 164.497C690.383 164.497 690.383 164.658 690.383 164.638C687.701 163.69 687.984 159.82 688.83 157.642Z" fill="#263238"/>
<path d="M691.572 155.365C695.604 155.788 694.475 163.831 690.725 163.428C686.976 163.025 688.165 155.022 691.572 155.365Z" fill="#263238"/>
<path d="M675.042 156.01C675.042 155.909 674.82 156.01 674.82 156.191C674.538 158.711 673.812 161.533 671.434 162.058V162.199C674.256 162.179 675.183 158.429 675.042 156.01Z" fill="#263238"/>
<path d="M673.167 153.087C669.136 152.22 667.765 160.223 671.434 161.029C675.103 161.836 676.494 153.813 673.167 153.087Z" fill="#263238"/>
<path d="M695.261 152.119C694.245 151.665 693.255 151.153 692.297 150.587C691.176 150.191 690.214 149.441 689.556 148.45C689.417 148.098 689.397 147.711 689.499 147.347C689.601 146.983 689.819 146.663 690.12 146.434C690.792 146.074 691.547 145.899 692.309 145.927C693.071 145.956 693.811 146.186 694.454 146.595C695.877 147.221 697.014 148.358 697.639 149.78C697.759 150.111 697.781 150.469 697.703 150.811C697.626 151.154 697.451 151.467 697.201 151.713C696.95 151.959 696.634 152.129 696.29 152.201C695.946 152.272 695.589 152.244 695.261 152.119V152.119Z" fill="#263238"/>
<path d="M670.688 148.592C671.796 148.524 672.9 148.396 673.994 148.209C675.185 148.236 676.352 147.875 677.32 147.18C677.555 146.904 677.698 146.562 677.731 146.201C677.763 145.84 677.683 145.478 677.502 145.165C677.01 144.6 676.379 144.174 675.672 143.93C674.964 143.686 674.205 143.632 673.47 143.774C671.909 143.855 670.435 144.517 669.337 145.628C669.13 145.893 668.999 146.209 668.96 146.543C668.92 146.876 668.973 147.215 669.112 147.52C669.251 147.826 669.472 148.088 669.75 148.277C670.028 148.466 670.352 148.574 670.688 148.592V148.592Z" fill="#263238"/>
<path d="M688.629 181.108C687.944 181.612 687.238 182.338 686.311 182.297C685.385 182.139 684.501 181.796 683.71 181.289C683.71 181.289 683.549 181.289 683.589 181.39C683.875 181.935 684.304 182.392 684.829 182.711C685.355 183.031 685.958 183.201 686.573 183.204C687.11 183.133 687.614 182.904 688.02 182.544C688.426 182.185 688.715 181.713 688.851 181.188C688.831 181.128 688.71 181.047 688.629 181.108Z" fill="#263238"/>
<path d="M687.036 173.265C686.266 174.169 685.316 174.903 684.247 175.42C683.178 175.937 682.014 176.226 680.827 176.269C679.798 176.315 678.767 176.22 677.763 175.987L677.178 175.826C676.999 175.79 676.823 175.736 676.654 175.664C676.521 175.627 676.406 175.544 676.328 175.429C676.251 175.315 676.216 175.177 676.231 175.039C676.222 174.959 676.222 174.878 676.231 174.797V174.797V174.576C676.433 172.56 677.037 169.738 677.037 169.738C676.291 170 672.481 171.108 672.683 170.121C674.111 161.483 676.414 153.013 679.557 144.841C679.658 144.579 680.081 144.7 680.021 144.962C678.731 153.026 675.989 160.666 674.638 168.669C675.997 168.247 677.409 168.023 678.832 168.004C679.094 168.125 677.582 173.588 677.541 174.475C679.092 174.857 680.704 174.922 682.28 174.665C683.856 174.409 685.364 173.837 686.714 172.983C687.036 172.903 687.218 173.104 687.036 173.265Z" fill="#263238"/>
<path d="M679.034 175.161C679.89 176.68 681.127 177.952 682.622 178.85C683.453 179.323 684.413 179.52 685.364 179.415C687.379 179.173 687.742 177.399 687.581 175.725C687.505 174.866 687.322 174.02 687.037 173.206C684.645 174.692 681.841 175.377 679.034 175.161V175.161Z" fill="#263238"/>
<path d="M682.622 178.85C683.454 179.322 684.413 179.52 685.364 179.414C687.38 179.172 687.742 177.398 687.581 175.725C686.524 175.614 685.46 175.861 684.56 176.428C683.661 176.995 682.978 177.848 682.622 178.85V178.85Z" fill="#FF98B9"/>
<path d="M722.516 165.182C718.303 165.787 715.561 152.966 714.977 148.087C714.453 143.813 715.158 130.589 715.098 129.662C715.037 128.735 695.745 138.451 686.049 133.895C676.352 129.339 671.01 119.159 671.534 114.885C672.058 110.612 686.351 101.802 697.338 102.951C708.324 104.1 720.924 120.268 720.924 120.268C719.458 117.96 718.178 115.54 717.093 113.031C717.355 112.567 723.947 116.478 724.472 121.699C724.472 121.699 724.048 115.188 724.613 115.147C725.177 115.107 729.794 121.377 727.919 125.227C727.919 125.227 733.382 131.698 733.039 137.806C732.696 143.914 727.475 164.476 722.516 165.182Z" fill="#263238"/>
<path d="M679.175 130.65C681.929 132.732 684.98 134.39 688.226 135.568C691.911 136.496 695.769 136.496 699.454 135.568C703.15 134.75 706.69 133.341 709.937 131.396C712.8 129.702 715.441 127.525 718.444 126.094C719.19 125.731 719.835 126.819 719.311 127.384C713.79 133.061 706.587 136.808 698.769 138.068C695.143 138.659 691.425 138.295 687.982 137.012C684.539 135.729 681.489 133.571 679.134 130.75C679.134 130.75 679.134 130.609 679.175 130.65Z" fill="#263238"/>
<path d="M690.403 169.536C687.644 168.785 685.294 166.973 683.866 164.495C682.438 162.018 682.049 159.076 682.783 156.312V156.312C683.308 154.363 684.368 152.601 685.845 151.225C687.321 149.849 689.154 148.915 691.135 148.529C693.116 148.143 695.165 148.321 697.05 149.041C698.935 149.762 700.58 150.998 701.798 152.607C703.016 154.217 703.758 156.135 703.939 158.145C704.12 160.155 703.734 162.176 702.824 163.977C701.915 165.779 700.518 167.289 698.792 168.335C697.067 169.382 695.082 169.924 693.064 169.899C692.165 169.897 691.27 169.775 690.403 169.536V169.536ZM684.174 156.675C683.692 158.461 683.75 160.35 684.342 162.102C684.933 163.855 686.031 165.394 687.496 166.523C688.961 167.652 690.729 168.321 692.574 168.445C694.42 168.57 696.261 168.144 697.865 167.223C699.469 166.301 700.764 164.924 701.585 163.267C702.407 161.609 702.719 159.745 702.481 157.911C702.243 156.076 701.467 154.353 700.25 152.96C699.033 151.567 697.43 150.565 695.645 150.083C694.886 149.888 694.109 149.78 693.326 149.76C691.25 149.737 689.226 150.403 687.569 151.654C685.913 152.906 684.719 154.672 684.174 156.675Z" fill="#5A74CA"/>
<path d="M667.824 166.512C663.43 165.928 660.487 160.666 661.253 154.76C661.548 152.084 662.684 149.572 664.498 147.583C665.219 146.676 666.161 145.971 667.235 145.536C668.309 145.101 669.477 144.952 670.625 145.102C671.774 145.252 672.864 145.697 673.79 146.393C674.715 147.089 675.445 148.013 675.908 149.075C677.137 151.471 677.581 154.193 677.178 156.856C676.452 162.44 672.663 166.613 668.53 166.553L667.824 166.512ZM665.546 148.571C663.946 150.348 662.945 152.584 662.684 154.961C662.019 160.061 664.397 164.597 668.006 165.041C671.614 165.484 675.082 161.735 675.767 156.614C676.113 154.255 675.718 151.846 674.638 149.72C674.247 148.883 673.66 148.153 672.926 147.592C672.193 147.03 671.335 146.654 670.425 146.494H669.881C669.053 146.519 668.24 146.716 667.494 147.074C666.747 147.431 666.084 147.941 665.546 148.571Z" fill="#5A74CA"/>
<path d="M682.985 157.643L684.053 156.655C682.602 155.083 679.094 152.764 676.111 155.224L677.018 156.332C679.699 154.075 682.783 157.461 682.985 157.643Z" fill="#5A74CA"/>
<path d="M730.298 166.593L731.669 166.109C731.427 165.464 729.33 159.9 726.206 158.953C723.081 158.005 703.869 157.38 703.043 157.34V158.792C708.607 158.993 723.585 159.658 725.823 160.344C728.06 161.029 729.754 165.061 730.298 166.593Z" fill="#5A74CA"/>
<path d="M717.558 165.323C717.558 165.323 726.145 153.611 731.488 156.695C736.83 159.78 730.177 176.854 723.787 179.132C722.986 179.474 722.124 179.649 721.253 179.648C720.382 179.647 719.52 179.47 718.72 179.127C717.919 178.784 717.196 178.283 716.595 177.653C715.993 177.024 715.525 176.279 715.219 175.463L717.558 165.323Z" fill="#EB9481"/>
<path d="M729.471 161.553V161.715C724.996 163.428 722.557 167.5 720.823 171.794C721.091 171.355 721.45 170.979 721.878 170.692C722.305 170.406 722.79 170.215 723.298 170.135C723.806 170.054 724.326 170.085 724.821 170.226C725.316 170.366 725.775 170.612 726.165 170.948C726.286 170.948 726.165 171.21 726.044 171.169C725.267 170.913 724.431 170.899 723.646 171.13C722.861 171.36 722.165 171.824 721.649 172.459C720.814 173.55 720.085 174.718 719.472 175.947C719.271 176.35 718.545 176.108 718.706 175.665C718.787 169.738 723.363 161.997 729.471 161.553Z" fill="#263238"/>
<path d="M732.434 156.836C731.828 156.39 731.12 156.101 730.374 155.995C729.628 155.89 728.868 155.971 728.161 156.231C727.959 156.231 727.939 156.413 728.161 156.352C729.009 156.101 729.913 156.101 730.761 156.352C731.467 156.574 733.463 157.4 733.442 161.573C733.136 164.869 732.227 168.08 730.761 171.048C730.761 171.149 730.882 171.25 730.943 171.149C731.918 169.291 732.702 167.339 733.281 165.323C733.846 163.065 734.591 158.67 732.434 156.836Z" fill="#263238"/>
<path d="M720.419 218.261C718.988 219.853 717.718 221.526 716.206 223.038C714.684 224.573 713.083 226.027 711.408 227.393C708.168 230.045 704.654 232.342 700.926 234.247C697.072 236.54 692.588 237.543 688.125 237.109C686.101 236.765 684.21 235.875 682.654 234.536C681.098 233.197 679.937 231.459 679.295 229.509C677.42 224.47 678.69 219.107 679.92 213.826C679.92 213.644 679.678 213.564 679.618 213.826C678.227 219.248 677.178 223.704 678.126 228.804C678.436 230.794 679.238 232.676 680.459 234.277C681.681 235.879 683.283 237.151 685.121 237.976C694.051 241.685 703.566 235.255 710.178 229.751C712.114 228.135 713.952 226.405 715.682 224.57C717.534 222.704 719.22 220.681 720.722 218.523C720.782 218.281 720.54 218.12 720.419 218.261Z" fill="#263238"/>
<path d="M794.202 414.064H71.4238V439.767H794.202V414.064Z" fill="#37474F"/>
<path d="M794.202 429.727H71.4238V439.766H794.202V429.727Z" fill="#455A64"/>
<path d="M97.3477 800.409H86.9658L117.204 439.766H143.713L97.3477 800.409Z" fill="#455A64"/>
<path d="M143.714 439.766L140.609 463.896H115.189L117.205 439.766H143.714Z" fill="#263238"/>
<path d="M768.278 800.409H778.66L748.421 439.766H721.912L768.278 800.409Z" fill="#455A64"/>
<path d="M721.912 439.766L725.017 463.896H750.437L748.421 439.766H721.912Z" fill="#263238"/>
<path d="M518.145 414.045H629.805V405.356L518.145 401.748V414.045Z" fill="#455A64"/>
<path d="M430.374 413.883H504.055C510.344 413.883 501.233 395.982 478.292 389.128C455.351 382.274 423.157 407.17 430.374 413.883Z" fill="#37474F"/>
<path d="M459.282 413.883C458.083 410.117 456.474 406.493 454.484 403.078C453.5 401.409 452.352 399.842 451.057 398.401C449.718 396.947 448.269 395.599 446.723 394.369C448.718 394.956 450.566 395.959 452.145 397.313C453.747 398.669 455.11 400.284 456.177 402.09C457.253 403.883 458.074 405.816 458.616 407.836C459.182 409.799 459.407 411.844 459.282 413.883Z" fill="#263238"/>
<path d="M450.553 396.849C446.682 399.369 442.812 401.627 439.183 404.227C437.367 405.486 435.655 406.888 434.063 408.42C432.43 409.934 431.167 411.803 430.374 413.883C430.424 411.49 431.317 409.192 432.893 407.392C434.357 405.551 436.082 403.935 438.014 402.594C439.922 401.26 441.946 400.099 444.061 399.127C446.138 398.139 448.314 397.376 450.553 396.849V396.849Z" fill="#263238"/>
<path d="M377.516 379.23H556.588L528.124 245.919H349.032L377.516 379.23Z" fill="#455A64"/>
<path d="M370.904 379.23H549.976L521.492 245.919H342.42L370.904 379.23Z" fill="#37474F"/>
<path d="M467.486 331.433H471.679L465.309 301.538H461.116L467.486 331.433Z" fill="#263238"/>
<path d="M459.201 331.433H463.394L457.024 301.538H452.811L459.201 331.433Z" fill="#263238"/>
<path d="M450.915 331.433H455.108L448.738 301.538H444.525L450.915 331.433Z" fill="#263238"/>
<path d="M442.631 331.433H446.824L440.453 301.538H436.24L442.631 331.433Z" fill="#263238"/>
<path d="M434.325 331.433H438.538L432.168 301.538H427.955L434.325 331.433Z" fill="#263238"/>
<path d="M426.039 331.433H430.252L423.862 301.538H419.668L426.039 331.433Z" fill="#263238"/>
<path d="M417.754 331.433H421.967L415.577 301.538H411.384L417.754 331.433Z" fill="#263238"/>
<path d="M421.544 414.065H509.618V407.211L421.544 404.368V414.065Z" fill="#455A64"/>
<path d="M397.595 414.044H444.888L473.373 339.335H426.08L397.595 414.044Z" fill="#455A64"/>
<path d="M389.814 414.044H437.107L465.571 339.335H418.299L389.814 414.044Z" fill="#263238"/>
<path d="M181.693 381.185H71.4238V287.93L126.538 252.914L181.693 287.93V381.185Z" fill="#5A74CA"/>
<path opacity="0.2" d="M181.693 381.185H71.4238V287.93L126.538 252.914L181.693 287.93V381.185Z" fill="black"/>
<path d="M175.464 366.348H77.6328V240.778H150.265L175.464 264.707V366.348Z" fill="white"/>
<path d="M150.266 240.778L175.465 264.707H150.266V240.778Z" fill="#DBDBDB"/>
<path d="M87.1883 265.07H141.577V261.844H87.1883V265.07Z" fill="#DBDBDB"/>
<path d="M87.1883 273.214H141.577V269.988H87.1883V273.214Z" fill="#DBDBDB"/>
<path d="M87.1883 281.338H141.577V278.112H87.1883V281.338Z" fill="#DBDBDB"/>
<path d="M87.1882 289.502H166.876V286.277H87.1882V289.502Z" fill="#DBDBDB"/>
<path d="M87.1882 297.626H166.876V294.401H87.1882V297.626Z" fill="#DBDBDB"/>
<path d="M87.1882 305.77H166.876V302.545H87.1882V305.77Z" fill="#DBDBDB"/>
<path d="M87.1882 313.894H166.876V310.669H87.1882V313.894Z" fill="#DBDBDB"/>
<path d="M87.1882 322.059H166.876V318.834H87.1882V322.059Z" fill="#DBDBDB"/>
<path d="M87.1882 330.183H166.876V326.957H87.1882V330.183Z" fill="#DBDBDB"/>
<path d="M87.1882 338.327H166.876V335.101H87.1882V338.327Z" fill="#DBDBDB"/>
<path d="M87.1882 346.451H166.876V343.226H87.1882V346.451Z" fill="#DBDBDB"/>
<path d="M87.1882 354.596H166.876V351.371H87.1882V354.596Z" fill="#DBDBDB"/>
<path d="M181.693 311.274V381.185H71.4238V311.274C76.1612 313.955 80.8179 316.757 85.5351 319.519C90.2523 322.28 94.8687 325.103 99.5052 327.965C104.679 331.11 109.84 334.295 114.987 337.521H115.169L115.028 337.642L126.599 344.879C130.449 342.46 134.3 340.02 138.17 337.642L138.029 337.521H138.19C143.351 334.315 148.491 331.13 153.672 327.965C158.309 325.13 162.966 322.321 167.642 319.539C172.299 316.757 176.956 313.955 181.693 311.274Z" fill="#3354D1"/>
<path d="M181.693 311.274C177.238 314.398 172.702 317.321 168.207 320.466C163.711 323.611 159.156 326.514 154.6 329.477C150.044 332.441 145.064 335.666 140.307 338.73L139.884 339.033L127.183 347.096L126.538 347.479L125.934 347.096C121.7 344.408 117.474 341.72 113.254 339.033C113.099 338.95 112.95 338.856 112.81 338.75C108.012 335.686 103.255 332.703 98.4973 329.477C93.7398 326.252 89.4257 323.43 84.9101 320.486C80.3945 317.543 75.879 314.439 71.4238 311.294C76.1612 313.975 80.8179 316.777 85.5351 319.539C90.2523 322.301 94.8687 325.123 99.5052 327.985C104.679 331.13 109.84 334.315 114.987 337.541L126.559 344.778C130.409 342.359 134.259 339.92 138.13 337.541C143.29 334.335 148.431 331.15 153.612 327.985C158.248 325.15 162.905 322.341 167.582 319.559C172.299 316.757 176.956 313.955 181.693 311.274Z" fill="white"/>
<path d="M107.346 643.292C107.346 643.292 62.654 633.213 38.1609 610.595C13.6678 587.976 0 547.598 0 547.598C16.9831 550.875 33.7261 555.293 50.1151 560.822C54.1469 565.096 61.7267 573.905 65.2746 582.251C65.6911 577.154 65.7316 572.033 65.3956 566.93C71.1117 569.411 76.4628 572.66 81.301 576.586C101.601 594.306 107.346 643.292 107.346 643.292Z" fill="#FFAF37"/>
<path d="M27.8996 567.253C21.852 563.019 15.6027 558.967 9.53485 554.714C9.47692 554.657 9.43986 554.582 9.42963 554.501C9.41941 554.42 9.43661 554.338 9.47847 554.269C9.52033 554.199 9.58443 554.145 9.66046 554.116C9.73649 554.087 9.82004 554.085 9.89771 554.109C21.4085 560.983 32.7781 568.341 43.7446 576.042C47.5748 578.723 51.3445 581.525 55.0537 584.368L54.2877 583.037C52.937 580.799 51.5259 578.602 50.1148 576.405C47.3121 571.919 44.1359 567.677 40.6199 563.725C40.499 563.584 40.6199 563.382 40.8417 563.523C44.3292 567.555 47.7965 571.587 50.9211 575.76C52.4331 577.776 53.824 579.791 55.1545 582.029C55.8601 583.138 56.5253 584.267 57.1704 585.396L57.8357 586.545C63.6213 591.08 69.2456 595.818 74.6079 600.817C77.9341 603.922 81.1192 607.107 84.2036 610.413C82.49 605.01 80.9781 599.547 78.9622 594.286C78.9622 594.104 79.2041 594.044 79.2646 594.286C81.2805 599.87 83.2964 605.474 84.8486 611.219C88.2757 614.902 91.5347 618.739 94.6257 622.73C94.6257 622.488 94.6257 622.246 94.4645 622.004C93.9605 619.988 93.4364 617.791 92.8719 615.715C91.7833 611.683 90.5939 607.651 89.2231 603.619C86.6361 595.38 82.5341 587.695 77.1278 580.961C77.0068 580.799 77.1278 580.598 77.3495 580.739C86.0783 591.08 91.1987 603.478 94.4645 616.481C94.9281 618.396 95.3918 620.291 95.8151 622.206C96.057 623.214 96.3191 624.222 96.5005 625.29C97.8512 627.125 99.1615 628.959 100.532 630.854C108.151 642.502 114.491 654.938 119.441 667.947C125.035 682.549 129.82 697.449 133.774 712.578C133.774 712.881 133.412 712.982 133.311 712.699C124.562 686.493 115.651 660.024 100.673 636.66C97.5169 631.726 94.1124 626.956 90.473 622.367C83.071 621.891 75.7641 620.441 68.7417 618.053C61.0735 615.468 53.7594 611.933 46.97 607.53C43.1275 604.918 39.4202 602.112 35.8624 599.124C35.841 599.113 35.8223 599.097 35.8077 599.078C35.7932 599.059 35.7831 599.036 35.7783 599.013C35.7735 598.989 35.7741 598.964 35.78 598.941C35.786 598.918 35.797 598.896 35.8125 598.877C35.828 598.859 35.8474 598.844 35.8693 598.834C35.8913 598.824 35.9152 598.819 35.9394 598.819C35.9635 598.82 35.9872 598.826 36.0088 598.836C36.0304 598.847 36.0492 598.863 36.064 598.882C42.3031 603.9 49.1928 608.05 56.5455 611.219C63.7693 614.53 71.3242 617.064 79.0832 618.779C82.3892 619.505 85.7356 620.029 89.1626 620.492C85.0277 615.386 80.634 610.494 75.9989 605.837C74.4869 604.345 72.9347 602.894 71.3825 601.442C66.1706 597.796 60.6377 594.631 54.8521 591.988C47.5345 588.44 40.3377 584.69 33.0805 581.001C29.0487 578.985 25.0169 576.788 20.8037 574.792C20.6424 574.691 20.8037 574.449 20.965 574.53C28.323 578.078 35.7818 581.384 43.1398 584.791C50.1349 587.976 57.2511 591.181 63.8833 594.87L64.73 595.374C58.6689 590.106 52.4264 585.06 46.0024 580.235C40.0152 575.84 34.0078 571.466 27.8996 567.253Z" fill="#263238"/>
<path d="M30.4401 590.275C34.0687 591.867 37.7779 593.278 41.3662 594.972C44.9545 596.665 48.5629 598.721 52.0908 600.797C52.2319 600.898 52.0907 601.1 51.9295 601.039C48.3815 599.326 44.7731 597.733 41.2452 595.959C37.7174 594.185 34.0485 592.19 30.3393 590.577C30.178 590.496 30.2586 590.194 30.4401 590.275Z" fill="#263238"/>
<path d="M252.511 418.097C244.255 428.748 239.583 441.739 239.166 455.209C239.005 459.241 239.65 464.785 240.113 471.336C223.442 480.186 210.943 496.313 210.943 496.313C220.418 490.629 233.4 488.25 240.416 489.258C240.187 493.743 239.614 498.205 238.702 502.603C235.618 502.421 229.631 502.845 219.753 506.352C225.623 506.292 231.443 507.445 236.847 509.739C228.885 535.099 205.198 561.124 139.823 572.232C132.877 541.137 136.968 508.594 151.394 480.186C170.988 441.622 252.511 418.097 252.511 418.097Z" fill="#FFAF37"/>
<path d="M117.184 680.606C118.313 669.774 119.724 658.975 121.417 648.211C124.731 626.674 129.131 605.318 134.601 584.226C137.164 574.324 140.315 564.584 144.036 555.056C143.851 553.315 143.777 551.565 143.814 549.815C143.814 547.799 143.814 545.622 143.814 543.545C143.814 539.352 144.015 535.166 144.419 530.986C145.086 522.718 146.435 514.519 148.45 506.473C149.64 501.816 151.031 497.24 152.482 492.624C152.482 492.442 152.825 492.523 152.764 492.624C150.606 500.663 148.996 508.839 147.946 517.097C146.78 525.237 146.047 533.433 145.749 541.65C145.749 543.888 145.628 546.126 145.628 548.383C145.628 549.331 145.628 550.299 145.628 551.266C148.83 543.482 152.506 535.902 156.635 528.567C163.28 516.883 170.758 505.693 179.011 495.083C179.032 493.848 179.215 492.622 179.556 491.434C179.858 489.963 180.181 488.511 180.503 487.06C181.168 484.076 181.914 481.012 182.741 478.15C184.353 472.223 186.51 466.498 188.365 460.652C188.365 460.45 188.708 460.551 188.647 460.652C186.914 466.437 185.765 472.445 184.454 478.331C183.789 481.254 183.164 484.177 182.438 487.1C182.116 488.552 181.793 490.003 181.491 491.475V491.797C184.132 488.471 186.833 485.165 189.554 481.94C202.033 467.304 215.761 453.717 229.509 440.392C231.203 438.739 232.937 437.126 234.65 435.493C234.681 435.475 234.717 435.467 234.753 435.471C234.789 435.475 234.823 435.491 234.848 435.517C234.874 435.543 234.89 435.576 234.894 435.612C234.899 435.648 234.891 435.684 234.872 435.715C221.708 449.464 208.665 463.353 196.449 477.888C193.546 481.355 190.663 484.843 187.841 488.391C189.333 487.383 190.825 486.375 192.296 485.447C196.106 482.948 199.957 480.529 203.928 478.311C207.899 476.094 211.891 473.916 216.023 471.88C220.156 469.844 224.712 468.111 228.743 465.833C228.925 465.732 229.066 466.014 228.905 466.095C224.77 468.004 220.782 470.214 216.971 472.707C212.939 475.065 208.907 477.444 205.097 479.924C201.287 482.403 197.396 484.762 193.586 487.241C190.401 489.257 187.277 491.555 183.97 493.471C176.389 503.205 169.395 513.384 163.025 523.951C159.065 530.607 155.452 537.463 152.2 544.493L154.538 543.485L160.586 540.824C164.436 539.11 168.307 537.437 172.157 535.764C179.495 532.579 186.934 529.716 194.131 526.148C198.184 524.245 202.104 522.069 205.863 519.637C206.024 519.516 206.165 519.778 206.024 519.899C192.619 529.132 177.58 535.643 162.743 542.215L156.312 545.057C154.538 545.843 152.764 546.71 150.95 547.396C146.564 557.206 142.866 567.31 139.883 577.634C134.076 598.459 129.365 619.574 125.772 640.893C122.022 662.241 119.482 683.751 117.527 705.401C117.265 708.103 117.023 710.784 116.72 713.465C116.72 713.69 116.631 713.905 116.472 714.064C116.313 714.222 116.098 714.312 115.874 714.312C115.649 714.312 115.434 714.222 115.275 714.064C115.116 713.905 115.027 713.69 115.027 713.465C114.926 702.478 116.035 691.492 117.184 680.606Z" fill="#263238"/>
<path d="M156.958 500.043C158.168 493.39 159.942 486.899 161.736 480.388C161.736 480.186 162.058 480.287 162.018 480.388C160.365 486.778 159.175 493.289 157.986 499.781C156.797 506.272 155.668 513.025 154.741 519.677C154.741 519.778 154.559 519.798 154.559 519.677C154.996 513.093 155.797 506.538 156.958 500.043Z" fill="#263238"/>
<path d="M185.14 518.065C189.688 515.046 194.444 512.351 199.372 510.002C201.751 508.772 204.17 507.603 206.569 506.434C208.968 505.264 211.649 504.216 214.108 502.986C214.141 502.978 214.177 502.98 214.208 502.993C214.24 503.006 214.267 503.029 214.285 503.058C214.303 503.087 214.311 503.122 214.308 503.156C214.306 503.19 214.292 503.223 214.269 503.248C211.871 504.438 209.613 505.889 207.254 507.179C204.896 508.47 202.436 509.84 199.997 511.211C195.219 513.771 190.522 516.614 185.503 518.71C185.417 518.758 185.316 518.771 185.221 518.744C185.127 518.718 185.047 518.655 184.999 518.569C184.951 518.484 184.938 518.383 184.965 518.288C184.991 518.194 185.054 518.113 185.14 518.065Z" fill="#263238"/>
<path opacity="0.1" d="M106.54 565.882C106.54 565.882 65.1735 556.004 46.2039 528.265C28.0609 501.777 22.1946 456.62 21.731 452.649C22.4768 456.278 31.0242 495.749 59.1661 514.134C80.716 528.225 101.54 539.796 106.54 565.882Z" fill="#263238"/>
<path d="M106.54 565.882C106.54 565.882 65.1735 556.004 46.2039 528.266C28.0609 501.777 22.1946 456.621 21.731 452.649C21.7231 452.555 21.7231 452.461 21.731 452.367C21.731 452.367 41.5674 480.59 62.4117 487.746C83.2561 494.903 112.507 519.799 106.54 565.882Z" fill="#FFAF37"/>
<path d="M29.0289 467.91C32.7034 475.505 36.949 482.81 41.729 489.762C46.5526 496.362 52.2722 502.258 58.723 507.28C64.3473 511.735 70.2942 515.787 75.979 520.142L75.8379 519.94C74.7695 518.368 73.6406 516.815 72.4512 515.324C70.0926 512.3 67.5123 509.437 64.8916 506.615C59.7712 501.031 54.5098 495.568 49.9135 489.54C47.3471 486.212 45.1249 482.633 43.2812 478.856C43.2812 478.675 43.4828 478.574 43.5635 478.856C50.2764 492.826 63.7224 501.777 73.2374 513.57C74.5947 515.252 75.8663 517.001 77.0474 518.811C77.9923 520.117 78.7901 521.523 79.4262 523.004C84.6613 527.198 89.3963 531.98 93.5375 537.257C93.1807 534.532 92.6283 531.838 91.8844 529.193C90.9186 525.516 89.4391 521.994 87.4898 518.73C87.4898 518.569 87.6511 518.388 87.7519 518.549C89.7537 521.826 91.3704 525.323 92.5698 528.971C93.4583 531.852 93.9865 534.831 94.1422 537.841C96.1851 540.617 98.0502 543.519 99.7263 546.53C99.5448 545.643 99.3836 544.756 99.2021 543.869C98.3958 539.837 97.4886 535.644 96.4202 531.592C94.4696 523.352 91.1145 515.51 86.502 508.409C86.4936 508.376 86.496 508.341 86.509 508.309C86.5219 508.277 86.5446 508.25 86.5738 508.232C86.6031 508.214 86.6373 508.206 86.6715 508.209C86.7057 508.212 86.7381 508.225 86.7641 508.248C91.5026 515.276 95.2092 522.947 97.7709 531.027C99.1013 535.059 100.15 539.212 101.077 543.385C101.541 545.401 101.944 547.417 102.327 549.433C102.528 550.481 102.77 551.569 102.932 552.658C107.04 561.655 110.235 571.043 112.467 580.679C116.536 597.901 119.485 615.368 121.296 632.971C123.422 651.398 124.372 669.941 124.139 688.489C124.139 690.807 123.977 693.125 123.836 695.464C123.836 696.048 122.909 696.149 122.889 695.464C122.486 686.292 122.244 677.119 121.7 667.947C121.155 658.775 120.349 649.622 119.381 640.47C117.495 622.511 114.614 604.67 110.753 587.029C107.407 571.91 103.052 556.69 94.7873 543.445C90.6784 536.857 85.6559 530.884 79.8697 525.705C74.0841 520.504 67.7743 515.949 61.7267 511.131C55.5332 506.426 49.911 501.014 44.9746 495.003C39.8585 488.338 35.3963 481.196 31.6495 473.675C30.6819 471.8 29.6336 469.946 28.6862 468.071C28.666 467.91 28.9281 467.749 29.0289 467.91Z" fill="#263238"/>
<path d="M36.1648 473.977C38.8634 479.557 41.9415 484.946 45.3775 490.104C45.3775 490.225 45.2565 490.346 45.1759 490.225C41.6307 485.117 38.5155 479.722 35.8624 474.098C35.7818 473.897 36.064 473.796 36.1648 473.977Z" fill="#263238"/>
<path d="M258.277 547.598C258.277 547.598 258.942 606.361 223.805 623.315C188.668 640.269 169.819 626.157 145.951 631.842C146.878 630.451 163.913 605.958 191.027 599.205C218.927 592.21 249.83 572.071 258.277 547.598Z" fill="#FFAF37"/>
<path opacity="0.1" d="M258.277 547.598C258.277 547.598 258.942 606.361 223.805 623.315C188.668 640.269 169.819 626.157 145.951 631.842C158.569 625.844 172.052 621.872 185.906 620.069C208.101 617.267 250.415 602.914 258.277 547.598Z" fill="#FFAF37"/>
<path d="M143.632 632.89C147.811 629.08 152.516 625.889 157.602 623.415C158.368 623.053 159.134 622.77 159.9 622.448C160.27 621.975 160.667 621.524 161.089 621.097C162.132 619.988 163.235 618.938 164.395 617.952C166.59 616.045 168.952 614.338 171.451 612.852C177.277 609.425 183.667 607.026 189.594 603.861C189.611 603.852 189.63 603.846 189.65 603.844C189.669 603.842 189.689 603.844 189.707 603.85C189.726 603.855 189.744 603.865 189.759 603.877C189.774 603.889 189.786 603.905 189.796 603.922C189.805 603.939 189.811 603.958 189.813 603.977C189.815 603.997 189.813 604.016 189.807 604.035C189.802 604.054 189.792 604.071 189.78 604.086C189.768 604.102 189.752 604.114 189.735 604.123C186.792 605.655 183.95 607.329 181.087 609.002C178.225 610.675 175.463 612.187 172.741 613.921C170.297 615.486 167.972 617.231 165.786 619.142C165.182 619.686 164.577 620.271 163.992 620.875C167.875 619.557 171.842 618.499 175.866 617.71C182.297 616.42 188.788 615.493 195.218 614.122C198.367 613.455 201.476 612.614 204.532 611.602C207.455 609.264 210.358 606.925 213.12 604.385C216.472 601.33 219.517 597.954 222.211 594.306C222.332 594.145 222.594 594.306 222.473 594.467C218.21 600.236 213.382 605.564 208.06 610.373C209.572 609.788 211.084 609.183 212.555 608.498C224.623 603.084 234.981 594.475 242.511 583.601C242.632 583.44 242.894 583.602 242.773 583.743C236.395 593.078 228.16 600.998 218.583 607.006C213.774 610.005 208.633 612.434 203.262 614.243C197.038 616.185 190.686 617.687 184.252 618.739C177.946 619.773 171.721 621.255 165.625 623.173C160.022 625.072 154.755 627.848 150.022 631.398C141.049 638.365 133.829 647.333 128.936 657.585C122.283 670.91 119.119 685.807 117.345 700.543C117.345 701.168 116.296 701.168 116.337 700.543C117.99 675.728 124.602 650.045 143.632 632.89Z" fill="#263238"/>
<path d="M184.414 613.719C186.252 610.981 188.729 608.733 191.631 607.167C194.966 605.441 197.894 603.021 200.219 600.071C200.34 599.91 200.602 600.071 200.481 600.233C198.374 602.926 195.808 605.226 192.901 607.026C189.707 608.713 186.893 611.039 184.636 613.86C184.535 614.001 184.314 613.86 184.414 613.719Z" fill="#263238"/>
<path d="M165.767 676.252L164.175 708.567L159.276 807.285H85.5547L80.656 708.567L79.0635 676.252H165.767Z" fill="#37474F"/>
<path d="M165.767 676.252L164.175 708.567H80.656L79.0635 676.252H165.767Z" fill="#263238"/>
<path d="M170.928 662.765H73.8828V693.588H170.928V662.765Z" fill="#37474F"/>
</svg>
